<svg id="Capa_1" enable-background="new 0 0 510.92 510.92" height="512" viewBox="0 0 510.92 510.92" width="512" xmlns="http://www.w3.org/2000/svg"><g><path d="m454.899 44.027h-77.633c-4.143 0-7.5 3.358-7.5 7.5s3.357 7.5 7.5 7.5h77.633c22.619 0 41.021 18.402 41.021 41.021v234.32h-86.341c-4.143 0-7.5 3.358-7.5 7.5s3.357 7.5 7.5 7.5h85.642c-3.536 19.048-20.264 33.521-40.321 33.521h-195.923c-4.143 0-7.5 3.358-7.5 7.5s3.357 7.5 7.5 7.5h42.917v29.548c0 1.799.646 3.539 1.822 4.901l17.64 20.436h-130.792l17.64-20.436c1.176-1.362 1.822-3.102 1.822-4.901v-29.548h16.987c4.143 0 7.5-3.358 7.5-7.5s-3.357-7.5-7.5-7.5h-170.992c-20.057 0-36.786-14.473-40.321-33.521h361.918c4.143 0 7.5-3.358 7.5-7.5s-3.357-7.5-7.5-7.5h-362.618v-234.32c0-22.619 18.401-41.021 41.021-41.021h78.633c4.143 0 7.5-3.358 7.5-7.5s-3.357-7.5-7.5-7.5h-78.633c-30.89 0-56.021 25.131-56.021 56.021v241.82c0 30.89 25.131 56.021 56.021 56.021h139.006v26.759l-24.279 28.126h-9.996c-11.966 0-21.701 9.735-21.701 21.701v7.604c0 11.966 9.735 21.701 21.701 21.701h189.416c11.966 0 21.701-9.735 21.701-21.701v-7.604c0-11.966-9.735-21.701-21.701-21.701h-8.996l-24.279-28.126v-26.759h138.006c30.89 0 56.021-25.131 56.021-56.021v-241.82c0-30.89-25.131-56.021-56.021-56.021zm-98.03 430.448v7.604c0 3.695-3.006 6.701-6.701 6.701h-189.416c-3.695 0-6.701-3.006-6.701-6.701v-7.604c0-3.695 3.006-6.701 6.701-6.701h189.416c3.695 0 6.701 3.006 6.701 6.701z"/><path d="m142.208 125.69c4.117.367 7.762-2.695 8.121-6.822 2.289-26.318 14.292-50.712 33.799-68.689 2.288-2.108 4.659-4.102 7.099-5.986l58.484 88.136c1.39 2.094 3.735 3.353 6.249 3.353h105.773c-2.771 39.455-27.219 73.022-61.483 88.837l-42.999-40.656c2.041-3.865 3.202-8.264 3.202-12.93 0-15.326-12.469-27.794-27.794-27.794s-27.794 12.468-27.794 27.794c0 3.797.767 7.417 2.152 10.717l-6.714 5.31c-3.249 2.569-3.8 7.286-1.23 10.535 1.48 1.872 3.673 2.848 5.888 2.848 1.629 0 3.271-.529 4.647-1.618l6.726-5.319c4.588 3.342 10.229 5.32 16.326 5.32 5.221 0 10.109-1.45 14.287-3.964l37.593 35.545c-9.096 2.549-18.681 3.917-28.58 3.917-50.562 0-94.319-35.953-104.046-85.488-.798-4.064-4.73-6.711-8.805-5.915-4.064.798-6.712 4.74-5.914 8.804 4.588 23.367 15.812 44.082 31.472 60.353l-56.072 44.343c-4.588-3.342-10.229-5.321-16.327-5.321-15.325 0-27.794 12.468-27.794 27.794s12.469 27.794 27.794 27.794 27.794-12.468 27.794-27.794c0-3.797-.767-7.417-2.151-10.716l57.953-45.831c20.974 16.955 47.585 26.977 76.096 26.977 14.391 0 28.201-2.53 41.015-7.159l25.17 23.799c-2.041 3.865-3.202 8.264-3.202 12.93 0 15.326 12.469 27.794 27.794 27.794s27.794-12.468 27.794-27.794c0-4.607-1.133-8.952-3.126-12.782l54.637-51.041c4.209 2.568 9.15 4.049 14.431 4.049 15.325 0 27.794-12.468 27.794-27.794 0-15.325-12.469-27.793-27.794-27.793s-27.794 12.468-27.794 27.793c0 4.607 1.133 8.952 3.126 12.781l-54.637 51.042c-4.209-2.568-9.15-4.049-14.431-4.049-5.221 0-10.109 1.45-14.287 3.964l-20.576-19.455c38.672-20.229 65.128-60.744 65.128-107.328 0-66.743-54.299-121.042-121.042-121.042-30.479 0-59.599 11.368-81.997 32.009-22.264 20.517-35.964 48.367-38.577 78.42-.36 4.127 2.695 7.764 6.822 8.122zm77.658 45.243c0-7.055 5.739-12.794 12.794-12.794s12.794 5.739 12.794 12.794c0 7.054-5.739 12.793-12.794 12.793s-12.794-5.739-12.794-12.793zm-123.597 120.656c-7.055 0-12.794-5.739-12.794-12.794s5.739-12.794 12.794-12.794 12.794 5.739 12.794 12.794-5.74 12.794-12.794 12.794zm344.205-113.156c7.055 0 12.794 5.739 12.794 12.793 0 7.055-5.739 12.794-12.794 12.794s-12.794-5.739-12.794-12.794c0-7.054 5.739-12.793 12.794-12.793zm-84.447 91.592c.015.017.028.035.043.051.009.009.018.017.027.026 2.124 2.285 3.434 5.335 3.434 8.693 0 7.055-5.739 12.794-12.794 12.794s-12.794-5.739-12.794-12.794c0-3.394 1.338-6.475 3.502-8.768.003-.003.006-.005.009-.009.007-.007.012-.015.019-.022 2.333-2.455 5.619-3.996 9.264-3.996 3.66.001 6.956 1.554 9.29 4.025zm5.706-149.342h-101.749l-56.267-84.796c15.799-8.958 33.734-13.747 52.242-13.747 55.951 0 101.913 43.557 105.774 98.543z"/></g></svg>