<svg version="1" xmlns="http://www.w3.org/2000/svg" width="933.333" height="933.333" viewBox="0 0 700.000000 700.000000"><path d="M325.6 11.5C256.2 22.8 201.9 74.7 188 143.2c-1.2 5.6-2.2 13-2.3 16.5-.2 6.1 0 6.6 3.1 9.4 4.4 4 10.2 4.1 14.1.1 2.4-2.3 2.9-4.1 4-11.9 3-23.8 12-46.7 25.9-66.3 4.9-6.8 21.7-24.8 26.5-28.2l2.7-1.9 40.5 61c22.3 33.5 41.5 61.7 42.7 62.5 2 1.4 10.8 1.6 76 1.6H495v3.5c0 1.9-.9 7.9-1.9 13.3-6.2 31.8-23.2 61.4-46.9 81.9-8.8 7.5-22.4 16.7-29.9 20.2l-5.2 2.4-28.8-27.4c-16.3-15.4-28.7-28-28.6-28.8.1-.9.9-4.1 1.7-7.1 4.3-14.7-1.5-31.1-14.2-40.5-18.8-14-46.4-7.1-56.9 14.3-2.5 5.1-2.8 6.7-2.8 15.7 0 5.5.3 11.3.7 13 .7 2.8.3 3.3-5.1 7.7-6.7 5.3-8.1 8.9-5.5 14.3 1.9 4 7.4 7 11.2 6 1.4-.3 5-2.5 7.9-4.9l5.4-4.2 6.2 3c5.7 2.9 6.9 3.1 16.7 3.1 8.9 0 11.2-.4 15-2.3l4.4-2.2 6.1 5.8c3.3 3.2 14.6 13.9 25 23.8 10.5 9.8 19.1 18.2 19.3 18.5.4 1-14.4 3.8-25.8 5-23.9 2.4-54.8-3.4-76.6-14.4-39-19.8-67.4-55.5-77-96.9-2.2-9.7-5.3-13.3-11.5-13.3-3.4 0-4.6.6-7 3.3-3.5 3.9-3.7 7.3-.9 18.3 6.1 23.6 17.6 45.9 34 65.4l6.7 8.1-23.6 18.6c-13 10.3-30.1 23.8-38.2 30.1l-14.5 11.6-6.4-3.2c-5.9-3-7.2-3.2-16.5-3.2-9 0-10.6.3-15.8 2.8-7.4 3.7-14.7 11-18.4 18.4-2.5 5.3-2.8 6.8-2.8 16.3 0 9.4.3 11.1 2.7 16.1 3.8 7.6 10.9 14.6 18.8 18.3 5.8 2.8 7.5 3.1 16 3.1 8.2 0 10.3-.4 15.2-2.7 13.2-6.2 21.8-18.6 22.5-32.6.3-5-.1-9.3-1-12.3l-1.4-4.6 39.4-31.2 39.4-31.2 10.3 7c28.9 19.7 59.5 29.2 94.1 29.3 17.7 0 28.3-1.4 45.9-6.3l10.8-2.9 16.9 16.1c9.3 8.9 16.8 16.7 16.5 17.3-8.6 19.9-.8 41.5 18.3 50.9 6 2.9 7.4 3.2 16.1 3.2 8.3 0 10.3-.4 15.6-2.8 17.4-8.1 26.5-28.6 20.5-46.2l-2-6 2.7-2.7c1.5-1.4 18.2-17.1 37.2-34.7 24.6-23 34.9-32 36-31.5 8.1 3.6 12.9 4.6 20.6 4.2 17.9-.9 31.9-13.4 35.4-31.5 3.2-16.2-5.9-33.2-21.9-41-5-2.5-6.7-2.8-15.6-2.8-8.7 0-10.7.3-15.5 2.6-8.5 4-14.4 9.9-18.7 18.6-3.5 7-3.7 8.2-3.7 16.2 0 5.7.6 9.9 1.7 12.5.9 2.1 1.7 4.2 1.7 4.7 0 .4-16.7 16.4-37.1 35.5-34.1 31.9-37.2 34.6-39.2 33.5-9.4-4.8-21.7-5.5-31.1-1.6l-6 2.4-4.5-4.1c-11.9-10.7-23.3-22.2-22.4-22.5.5-.2 5.1-3.1 10.3-6.4C479.1 290 506 250 514.2 204c2.4-13.6 2.8-38.9.9-51.5-10.8-70.3-62-124.6-131.6-139.5-13.2-2.9-44.6-3.6-57.9-1.5zm47.9 21c57.2 9.2 103.4 51.3 117.5 107 1.6 6.1 3.2 14.3 3.5 18.3l.8 7.2h-139L318 107.5c-30.8-46.4-38-57.8-37-59 1.6-1.9 20.9-9.9 30.5-12.5 4.4-1.3 11.4-2.8 15.5-3.5 10.5-1.8 35.6-1.8 46.5 0z"/><path d="M63.5 61.5c-28.6 5.3-50.5 24.6-60.3 53l-2.7 8V302c0 170.8.1 179.8 1.8 185.9 7.5 26.3 27.9 46.9 54.2 54.8 5.6 1.6 13.4 1.8 108.3 2.1l102.2.2v36.9l-16.2 18.9-16.3 18.9-10.5.5c-12.5.6-18.6 2.8-24.8 9.1-6.6 6.8-8.6 12.3-8.6 24.7-.1 6 .5 12.5 1.2 15.1 2.1 7.2 7.8 13.9 15.1 17.6l6.3 3.3h273.6l6.3-3.3c7.3-3.7 13-10.4 15.1-17.6.7-2.6 1.3-9.1 1.2-15.1 0-12.5-2.1-18.3-8.7-24.8-6.3-6.1-12.4-8.4-23.9-9l-9.8-.5-16.5-19.1-16.5-19.1V545h99.3c96.3 0 99.5-.1 107.7-2 27.2-6.6 48.9-27.6 56.7-55 1.7-6.2 1.8-14.6 1.8-185.5v-179l-2.3-7.5c-8.5-26.9-28.1-45.9-55.2-53.6-5.9-1.6-12-1.8-66-2.2-32.7-.1-60.5 0-61.8.3-4 1-7.2 5.3-7.2 9.7 0 5 1.3 7.4 5 9.3 2.5 1.3 11 1.5 59.7 1.5 63.5 0 65.1.2 77.6 6.7 9.3 4.9 19.1 14.6 23.4 23.3 6.7 13.4 6.3 1.6 6.3 182.7V458h-60.1c-42.2 0-60.7.3-62.2 1.1-6.3 3.2-7.6 10.7-2.8 16.1l2.9 3.3 60.6.3c36.6.1 60.6.6 60.6 1.2 0 2.4-5 14.4-7.9 18.9-4.3 6.7-13.3 14.9-20.6 18.8-12.6 6.7-3.8 6.3-157 6.3-154.2 0-143.6-.5-147 6.7-2 4.2-1.3 7.8 2.3 11.5l2.6 2.8H413v20.5c0 15.6.3 21.3 1.4 23.8.8 1.8 6.7 9.3 13.1 16.7l11.6 13.5-44.6.3c-24.6.1-64.4.1-88.5 0l-43.8-.3 12.3-14.2c6.7-7.8 12.5-14.9 12.9-15.8.3-.9.6-11.3.6-23.1V545h13.5c13.4 0 13.5 0 16.6-2.8 2.6-2.3 3.2-3.6 3.2-7.1 0-3.5-.6-4.9-3.2-7.4l-3.1-3.2-125.3-.5-125.2-.5-5.9-2.3c-18.3-6.9-31.7-21.6-36-39.5L22 479h248.5c274 0 252.6.5 256.1-6.1 2.2-4.3 1.1-9.1-2.7-12.3l-3.1-2.6H21V293.7c0-181.1-.4-169 6.3-182.6 5.9-12 20-23.6 34.2-28.2 3-1 19.2-1.4 65.7-1.8l61.6-.6 2.6-2.4c3.4-3.2 4.2-8 2.2-12-3.3-6.3-1.6-6.1-65.3-6-42.9.1-59.6.4-64.8 1.4zM483.4 642c4.1 1.5 5.9 6.2 5.4 14.6-.3 6-.8 7.7-2.7 9.8l-2.4 2.6H216.3l-2.4-2.6c-1.9-2.1-2.4-3.8-2.7-9.8-.4-8.2 1.3-13 5.1-14.6 3.1-1.2 263.9-1.3 267.1 0z"/></svg>